ffmpeg started on 2026-01-05 at 13:26:43
Report written to "D:\Convert\FFMetrics\reports\ssim_report-6.txt"
Log level: 32
Command line:
ffmpeg -hide_banner -nostdin -r 24000/1001 -i "F:\\Convert\\files\\JamClub_Ore_dake_Level_Up_na_Ken_Season_2_13_1080p_HEVC(54).mkv" -r 24000/1001 -i "F:\\Convert\\files\\JamClub_Ore_dake_Level_Up_na_Ken_Season_2_13_1080p.mp4" -lavfi "[0:v]settb=AVTB,setpts=PTS-STARTPTS,format=pix_fmts=yuv420p10le,fps=24000/1001,scale=1920:1080:flags=bicubic[main];[1:v]settb=AVTB,setpts=PTS-STARTPTS,format=pix_fmts=yuv420p,fps=24000/1001,scale=1920:1080:flags=bicubic[ref];[main][ref]ssim=eof_action=endall:stats_file='D\\:/Convert/FFMetrics/logs/ssim_logfile-6.txt'" -f null -
Input #0, matroska,webm, from 'F:\Convert\files\JamClub_Ore_dake_Level_Up_na_Ken_Season_2_13_1080p_HEVC(54).mkv':
  Metadata:
    COMPATIBLE_BRANDS: isomiso2avc1mp41
    MAJOR_BRAND     : isom
    MINOR_VERSION   : 512
    ENCODER         : Lavf61.7.100
  Duration: 00:24:02.33, start: -0.001000, bitrate: 1905 kb/s
  Stream #0:0: Video: hevc (Main 10), yuv420p10le(tv, bt709, progressive), 1920x1080 [SAR 1:1 DAR 16:9], 23.98 fps, 23.98 tbr, 1k tbn (default)
      Metadata:
        HANDLER_NAME    : VideoHandler
        VENDOR_ID       : [0][0][0][0]
        ENCODER         : Lavc61.19.100 libx265
        BPS             : 1706686
        DURATION        : 00:24:02.148708333
        NUMBER_OF_FRAMES: 34577
        NUMBER_OF_BYTES : 307661798
        _STATISTICS_WRITING_APP: mkvpropedit v94.0 ('Initiate') 64-bit
        _STATISTICS_WRITING_DATE_UTC: 2026-01-04 15:24:01
        _STATISTICS_TAGS: BPS DURATION NUMBER_OF_FRAMES NUMBER_OF_BYTES
  Stream #0:1(eng): Audio: aac (LC), 48000 Hz, stereo, fltp (default)
      Metadata:
        HANDLER_NAME    : SoundHandler
        VENDOR_ID       : [0][0][0][0]
        ENCODER         : Lavc61.19.100 aac
        BPS             : 194704
        DURATION        : 00:24:02.285000000
        NUMBER_OF_FRAMES: 67608
        NUMBER_OF_BYTES : 35102363
        _STATISTICS_WRITING_APP: mkvpropedit v94.0 ('Initiate') 64-bit
        _STATISTICS_WRITING_DATE_UTC: 2026-01-04 15:24:01
        _STATISTICS_TAGS: BPS DURATION NUMBER_OF_FRAMES NUMBER_OF_BYTES
Input #1, mov,mp4,m4a,3gp,3g2,mj2, from 'F:\Convert\files\JamClub_Ore_dake_Level_Up_na_Ken_Season_2_13_1080p.mp4':
  Metadata:
    major_brand     : isom
    minor_version   : 512
    compatible_brands: isomiso2avc1mp41
    encoder         : Lavf60.16.100
  Duration: 00:24:02.31, start: 0.000000, bitrate: 5143 kb/s
  Stream #1:0[0x1](und): Video: h264 (High) (avc1 / 0x31637661), yuv420p(progressive), 1920x1080 [SAR 1:1 DAR 16:9], 4945 kb/s, 23.98 fps, 23.98 tbr, 90k tbn (default)
      Metadata:
        handler_name    : VideoHandler
        vendor_id       : [0][0][0][0]
  Stream #1:1[0x2](eng): Audio: aac (LC) (mp4a / 0x6134706D), 48000 Hz, stereo, fltp, 191 kb/s (default)
      Metadata:
        handler_name    : SoundHandler
        vendor_id       : [0][0][0][0]
Stream mapping:
  Stream #0:0 (hevc) -> settb:default
  Stream #1:0 (h264) -> settb:default
  ssim:default -> Stream #0:0 (wrapped_avframe)
  Stream #0:1 -> #0:1 (aac (native) -> pcm_s16le (native))
Output #0, null, to 'pipe:':
  Metadata:
    COMPATIBLE_BRANDS: isomiso2avc1mp41
    MAJOR_BRAND     : isom
    MINOR_VERSION   : 512
    encoder         : Lavf61.7.100
  Stream #0:0: Video: wrapped_avframe, yuv420p10le(tv, bt709, progressive), 1920x1080 [SAR 1:1 DAR 16:9], q=2-31, 200 kb/s, 23.98 fps, 23.98 tbn
      Metadata:
        encoder         : Lavc61.19.100 wrapped_avframe
  Stream #0:1(eng): Audio: pcm_s16le, 48000 Hz, stereo, s16, 1536 kb/s (default)
      Metadata:
        HANDLER_NAME    : SoundHandler
        VENDOR_ID       : [0][0][0][0]
        _STATISTICS_TAGS: BPS DURATION NUMBER_OF_FRAMES NUMBER_OF_BYTES
        BPS             : 194704
        DURATION        : 00:24:02.285000000
        NUMBER_OF_FRAMES: 67608
        NUMBER_OF_BYTES : 35102363
        _STATISTICS_WRITING_APP: mkvpropedit v94.0 ('Initiate') 64-bit
        _STATISTICS_WRITING_DATE_UTC: 2026-01-04 15:24:01
        encoder         : Lavc61.19.100 pcm_s16le
frame=  102 fps=0.0 q=-0.0 size=N/A time=00:00:04.25 bitrate=N/A speed=8.37x    frame=  236 fps=230 q=-0.0 size=N/A time=00:00:09.84 bitrate=N/A speed=9.59x    frame=  409 fps=265 q=-0.0 size=N/A time=00:00:17.05 bitrate=N/A speed=  11x    frame=  620 fps=301 q=-0.0 size=N/A time=00:00:25.85 bitrate=N/A speed=12.5x    frame=  846 fps=328 q=-0.0 size=N/A time=00:00:35.28 bitrate=N/A speed=13.7x    frame= 1069 fps=345 q=-0.0 size=N/A time=00:00:44.58 bitrate=N/A speed=14.4x    frame= 1277 fps=354 q=-0.0 size=N/A time=00:00:53.26 bitrate=N/A speed=14.8x    frame= 1509 fps=366 q=-0.0 size=N/A time=00:01:02.93 bitrate=N/A speed=15.3x    frame= 1728 fps=373 q=-0.0 size=N/A time=00:01:12.07 bitrate=N/A speed=15.5x    frame= 1926 fps=374 q=-0.0 size=N/A time=00:01:20.33 bitrate=N/A speed=15.6x    frame= 2104 fps=371 q=-0.0 size=N/A time=00:01:27.75 bitrate=N/A speed=15.5x    frame= 2300 fps=372 q=-0.0 size=N/A time=00:01:35.92 bitrate=N/A speed=15.5x    frame= 2490 fps=372 q=-0.0 size=N/A time=00:01:43.85 bitrate=N/A speed=15.5x    frame= 2662 fps=369 q=-0.0 size=N/A time=00:01:51.02 bitrate=N/A speed=15.4x    frame= 2825 fps=365 q=-0.0 size=N/A time=00:01:57.82 bitrate=N/A speed=15.2x    frame= 2978 fps=361 q=-0.0 size=N/A time=00:02:04.20 bitrate=N/A speed=15.1x    frame= 3131 fps=357 q=-0.0 size=N/A time=00:02:10.58 bitrate=N/A speed=14.9x    frame= 3320 fps=358 q=-0.0 size=N/A time=00:02:18.47 bitrate=N/A speed=14.9x    frame= 3447 fps=352 q=-0.0 size=N/A time=00:02:23.76 bitrate=N/A speed=14.7x    frame= 3617 fps=351 q=-0.0 size=N/A time=00:02:30.85 bitrate=N/A speed=14.6x    frame= 3758 fps=347 q=-0.0 size=N/A time=00:02:36.73 bitrate=N/A speed=14.5x    frame= 3907 fps=345 q=-0.0 size=N/A time=00:02:42.95 bitrate=N/A speed=14.4x    frame= 4083 fps=344 q=-0.0 size=N/A time=00:02:50.29 bitrate=N/A speed=14.4x    frame= 4313 fps=349 q=-0.0 size=N/A time=00:02:59.88 bitrate=N/A speed=14.5x    frame= 4548 fps=353 q=-0.0 size=N/A time=00:03:09.68 bitrate=N/A speed=14.7x    frame= 4791 fps=357 q=-0.0 size=N/A time=00:03:19.82 bitrate=N/A speed=14.9x    frame= 5012 fps=360 q=-0.0 size=N/A time=00:03:29.04 bitrate=N/A speed=  15x    frame= 5225 fps=362 q=-0.0 size=N/A time=00:03:37.92 bitrate=N/A speed=15.1x    frame= 5429 fps=363 q=-0.0 size=N/A time=00:03:46.43 bitrate=N/A speed=15.1x    frame= 5596 fps=362 q=-0.0 size=N/A time=00:03:53.39 bitrate=N/A speed=15.1x    frame= 5786 fps=362 q=-0.0 size=N/A time=00:04:01.32 bitrate=N/A speed=15.1x    frame= 6013 fps=365 q=-0.0 size=N/A time=00:04:10.79 bitrate=N/A speed=15.2x    frame= 6255 fps=368 q=-0.0 size=N/A time=00:04:20.88 bitrate=N/A speed=15.3x    frame= 6503 fps=371 q=-0.0 size=N/A time=00:04:31.22 bitrate=N/A speed=15.5x    frame= 6740 fps=374 q=-0.0 size=N/A time=00:04:41.11 bitrate=N/A speed=15.6x    frame= 6974 fps=376 q=-0.0 size=N/A time=00:04:50.87 bitrate=N/A speed=15.7x    frame= 7190 fps=377 q=-0.0 size=N/A time=00:04:59.88 bitrate=N/A speed=15.7x    frame= 7396 fps=378 q=-0.0 size=N/A time=00:05:08.47 bitrate=N/A speed=15.7x    frame= 7605 fps=378 q=-0.0 size=N/A time=00:05:17.19 bitrate=N/A speed=15.8x    frame= 7826 fps=380 q=-0.0 size=N/A time=00:05:26.40 bitrate=N/A speed=15.8x    frame= 8082 fps=382 q=-0.0 size=N/A time=00:05:37.08 bitrate=N/A speed=15.9x    frame= 8320 fps=384 q=-0.0 size=N/A time=00:05:47.01 bitrate=N/A speed=  16x    frame= 8586 fps=387 q=-0.0 size=N/A time=00:05:58.10 bitrate=N/A speed=16.2x    frame= 8846 fps=390 q=-0.0 size=N/A time=00:06:08.95 bitrate=N/A speed=16.3x    frame= 9090 fps=392 q=-0.0 size=N/A time=00:06:19.12 bitrate=N/A speed=16.3x    frame= 9291 fps=392 q=-0.0 size=N/A time=00:06:27.51 bitrate=N/A speed=16.3x    frame= 9487 fps=391 q=-0.0 size=N/A time=00:06:35.68 bitrate=N/A speed=16.3x    frame= 9724 fps=393 q=-0.0 size=N/A time=00:06:45.57 bitrate=N/A speed=16.4x    frame= 9942 fps=393 q=-0.0 size=N/A time=00:06:54.66 bitrate=N/A speed=16.4x    frame=10185 fps=395 q=-0.0 size=N/A time=00:07:04.79 bitrate=N/A speed=16.5x    frame=10414 fps=396 q=-0.0 size=N/A time=00:07:14.35 bitrate=N/A speed=16.5x    frame=10663 fps=398 q=-0.0 size=N/A time=00:07:24.73 bitrate=N/A speed=16.6x    frame=10878 fps=398 q=-0.0 size=N/A time=00:07:33.70 bitrate=N/A speed=16.6x    frame=11062 fps=397 q=-0.0 size=N/A time=00:07:41.37 bitrate=N/A speed=16.6x    frame=11237 fps=396 q=-0.0 size=N/A time=00:07:48.67 bitrate=N/A speed=16.5x    frame=11446 fps=396 q=-0.0 size=N/A time=00:07:57.39 bitrate=N/A speed=16.5x    frame=11654 fps=396 q=-0.0 size=N/A time=00:08:06.06 bitrate=N/A speed=16.5x    frame=11829 fps=395 q=-0.0 size=N/A time=00:08:13.36 bitrate=N/A speed=16.5x    frame=12020 fps=395 q=-0.0 size=N/A time=00:08:21.33 bitrate=N/A speed=16.5x    frame=12245 fps=396 q=-0.0 size=N/A time=00:08:30.71 bitrate=N/A speed=16.5x    frame=12469 fps=396 q=-0.0 size=N/A time=00:08:40.06 bitrate=N/A speed=16.5x    frame=12677 fps=396 q=-0.0 size=N/A time=00:08:48.73 bitrate=N/A speed=16.5x    frame=12884 fps=396 q=-0.0 size=N/A time=00:08:57.37 bitrate=N/A speed=16.5x    frame=13064 fps=396 q=-0.0 size=N/A time=00:09:04.87 bitrate=N/A speed=16.5x    frame=13241 fps=395 q=-0.0 size=N/A time=00:09:12.26 bitrate=N/A speed=16.5x    frame=13416 fps=394 q=-0.0 size=N/A time=00:09:19.55 bitrate=N/A speed=16.4x    frame=13638 fps=395 q=-0.0 size=N/A time=00:09:28.81 bitrate=N/A speed=16.5x    frame=13865 fps=395 q=-0.0 size=N/A time=00:09:38.28 bitrate=N/A speed=16.5x    frame=14064 fps=395 q=-0.0 size=N/A time=00:09:46.58 bitrate=N/A speed=16.5x    frame=14308 fps=396 q=-0.0 size=N/A time=00:09:56.76 bitrate=N/A speed=16.5x    frame=14541 fps=397 q=-0.0 size=N/A time=00:10:06.48 bitrate=N/A speed=16.6x    frame=14770 fps=398 q=-0.0 size=N/A time=00:10:16.03 bitrate=N/A speed=16.6x    frame=14967 fps=398 q=-0.0 size=N/A time=00:10:24.24 bitrate=N/A speed=16.6x    frame=15179 fps=398 q=-0.0 size=N/A time=00:10:33.09 bitrate=N/A speed=16.6x    frame=15394 fps=398 q=-0.0 size=N/A time=00:10:42.05 bitrate=N/A speed=16.6x    frame=15616 fps=398 q=-0.0 size=N/A time=00:10:51.31 bitrate=N/A speed=16.6x    frame=15800 fps=398 q=-0.0 size=N/A time=00:10:58.99 bitrate=N/A speed=16.6x    frame=16017 fps=398 q=-0.0 size=N/A time=00:11:08.04 bitrate=N/A speed=16.6x    frame=16230 fps=398 q=-0.0 size=N/A time=00:11:16.92 bitrate=N/A speed=16.6x    frame=16470 fps=399 q=-0.0 size=N/A time=00:11:26.93 bitrate=N/A speed=16.6x    frame=16673 fps=399 q=-0.0 size=N/A time=00:11:35.40 bitrate=N/A speed=16.6x    frame=16898 fps=400 q=-0.0 size=N/A time=00:11:44.78 bitrate=N/A speed=16.7x    frame=17105 fps=400 q=-0.0 size=N/A time=00:11:53.42 bitrate=N/A speed=16.7x    frame=17295 fps=399 q=-0.0 size=N/A time=00:12:01.34 bitrate=N/A speed=16.6x    frame=17487 fps=399 q=-0.0 size=N/A time=00:12:09.35 bitrate=N/A speed=16.6x    frame=17676 fps=399 q=-0.0 size=N/A time=00:12:17.23 bitrate=N/A speed=16.6x    frame=17868 fps=398 q=-0.0 size=N/A time=00:12:25.24 bitrate=N/A speed=16.6x    frame=18086 fps=398 q=-0.0 size=N/A time=00:12:34.33 bitrate=N/A speed=16.6x    frame=18326 fps=399 q=-0.0 size=N/A time=00:12:44.34 bitrate=N/A speed=16.7x    frame=18571 fps=400 q=-0.0 size=N/A time=00:12:54.56 bitrate=N/A speed=16.7x    frame=18823 fps=401 q=-0.0 size=N/A time=00:13:05.07 bitrate=N/A speed=16.7x    frame=19040 fps=401 q=-0.0 size=N/A time=00:13:14.12 bitrate=N/A speed=16.7x    frame=19247 fps=401 q=-0.0 size=N/A time=00:13:22.76 bitrate=N/A speed=16.7x    frame=19492 fps=402 q=-0.0 size=N/A time=00:13:32.97 bitrate=N/A speed=16.8x    frame=19676 fps=402 q=-0.0 size=N/A time=00:13:40.65 bitrate=N/A speed=16.7x    frame=19840 fps=401 q=-0.0 size=N/A time=00:13:47.49 bitrate=N/A speed=16.7x    frame=20050 fps=401 q=-0.0 size=N/A time=00:13:56.25 bitrate=N/A speed=16.7x    frame=20270 fps=401 q=-0.0 size=N/A time=00:14:05.42 bitrate=N/A speed=16.7x    frame=20475 fps=401 q=-0.0 size=N/A time=00:14:13.97 bitrate=N/A speed=16.7x    frame=20677 fps=401 q=-0.0 size=N/A time=00:14:22.40 bitrate=N/A speed=16.7x    frame=20899 fps=401 q=-0.0 size=N/A time=00:14:31.66 bitrate=N/A speed=16.7x    frame=21144 fps=402 q=-0.0 size=N/A time=00:14:41.88 bitrate=N/A speed=16.8x    frame=21367 fps=402 q=-0.0 size=N/A time=00:14:51.18 bitrate=N/A speed=16.8x    frame=21625 fps=403 q=-0.0 size=N/A time=00:15:01.94 bitrate=N/A speed=16.8x    frame=21833 fps=403 q=-0.0 size=N/A time=00:15:10.61 bitrate=N/A speed=16.8x    frame=22067 fps=404 q=-0.0 size=N/A time=00:15:20.37 bitrate=N/A speed=16.8x    frame=22327 fps=405 q=-0.0 size=N/A time=00:15:31.22 bitrate=N/A speed=16.9x    frame=22598 fps=406 q=-0.0 size=N/A time=00:15:42.52 bitrate=N/A speed=16.9x    frame=22854 fps=407 q=-0.0 size=N/A time=00:15:53.20 bitrate=N/A speed=  17x    frame=23088 fps=407 q=-0.0 size=N/A time=00:16:02.96 bitrate=N/A speed=  17x    frame=23357 fps=408 q=-0.0 size=N/A time=00:16:14.18 bitrate=N/A speed=  17x    frame=23614 fps=409 q=-0.0 size=N/A time=00:16:24.90 bitrate=N/A speed=17.1x    frame=23837 fps=409 q=-0.0 size=N/A time=00:16:34.20 bitrate=N/A speed=17.1x    frame=24061 fps=409 q=-0.0 size=N/A time=00:16:43.54 bitrate=N/A speed=17.1x    frame=24282 fps=409 q=-0.0 size=N/A time=00:16:52.76 bitrate=N/A speed=17.1x    frame=24523 fps=410 q=-0.0 size=N/A time=00:17:02.81 bitrate=N/A speed=17.1x    frame=24761 fps=410 q=-0.0 size=N/A time=00:17:12.74 bitrate=N/A speed=17.1x    frame=25003 fps=411 q=-0.0 size=N/A time=00:17:22.83 bitrate=N/A speed=17.1x    frame=25259 fps=412 q=-0.0 size=N/A time=00:17:33.51 bitrate=N/A speed=17.2x    frame=25480 fps=412 q=-0.0 size=N/A time=00:17:42.72 bitrate=N/A speed=17.2x    frame=25692 fps=412 q=-0.0 size=N/A time=00:17:51.57 bitrate=N/A speed=17.2x    frame=25944 fps=412 q=-0.0 size=N/A time=00:18:02.08 bitrate=N/A speed=17.2x    frame=26164 fps=412 q=-0.0 size=N/A time=00:18:11.25 bitrate=N/A speed=17.2x    frame=26387 fps=413 q=-0.0 size=N/A time=00:18:20.55 bitrate=N/A speed=17.2x    frame=26591 fps=412 q=-0.0 size=N/A time=00:18:29.06 bitrate=N/A speed=17.2x    frame=26847 fps=413 q=-0.0 size=N/A time=00:18:39.74 bitrate=N/A speed=17.2x    frame=27087 fps=414 q=-0.0 size=N/A time=00:18:49.75 bitrate=N/A speed=17.2x    frame=27346 fps=414 q=-0.0 size=N/A time=00:19:00.55 bitrate=N/A speed=17.3x    frame=27603 fps=415 q=-0.0 size=N/A time=00:19:11.27 bitrate=N/A speed=17.3x    frame=27874 fps=416 q=-0.0 size=N/A time=00:19:22.57 bitrate=N/A speed=17.3x    frame=28101 fps=416 q=-0.0 size=N/A time=00:19:32.04 bitrate=N/A speed=17.3x    frame=28331 fps=416 q=-0.0 size=N/A time=00:19:41.63 bitrate=N/A speed=17.4x    frame=28571 fps=416 q=-0.0 size=N/A time=00:19:51.64 bitrate=N/A speed=17.4x    frame=28761 fps=416 q=-0.0 size=N/A time=00:19:59.57 bitrate=N/A speed=17.4x    frame=28967 fps=416 q=-0.0 size=N/A time=00:20:08.16 bitrate=N/A speed=17.4x    frame=29164 fps=416 q=-0.0 size=N/A time=00:20:16.38 bitrate=N/A speed=17.3x    frame=29366 fps=416 q=-0.0 size=N/A time=00:20:24.80 bitrate=N/A speed=17.3x    frame=29536 fps=415 q=-0.0 size=N/A time=00:20:31.89 bitrate=N/A speed=17.3x    frame=29695 fps=414 q=-0.0 size=N/A time=00:20:38.52 bitrate=N/A speed=17.3x    frame=29859 fps=414 q=-0.0 size=N/A time=00:20:45.36 bitrate=N/A speed=17.2x    frame=30077 fps=414 q=-0.0 size=N/A time=00:20:54.46 bitrate=N/A speed=17.3x    frame=30317 fps=414 q=-0.0 size=N/A time=00:21:04.47 bitrate=N/A speed=17.3x    frame=30532 fps=414 q=-0.0 size=N/A time=00:21:13.43 bitrate=N/A speed=17.3x    frame=30744 fps=414 q=-0.0 size=N/A time=00:21:22.28 bitrate=N/A speed=17.3x    frame=30912 fps=413 q=-0.0 size=N/A time=00:21:29.28 bitrate=N/A speed=17.2x    frame=31114 fps=413 q=-0.0 size=N/A time=00:21:37.71 bitrate=N/A speed=17.2x    frame=31299 fps=413 q=-0.0 size=N/A time=00:21:45.42 bitrate=N/A speed=17.2x    frame=31475 fps=412 q=-0.0 size=N/A time=00:21:52.76 bitrate=N/A speed=17.2x    frame=31716 fps=413 q=-0.0 size=N/A time=00:22:02.82 bitrate=N/A speed=17.2x    frame=31904 fps=412 q=-0.0 size=N/A time=00:22:10.66 bitrate=N/A speed=17.2x    frame=32093 fps=412 q=-0.0 size=N/A time=00:22:18.54 bitrate=N/A speed=17.2x    frame=32246 fps=411 q=-0.0 size=N/A time=00:22:24.92 bitrate=N/A speed=17.2x    frame=32408 fps=411 q=-0.0 size=N/A time=00:22:31.68 bitrate=N/A speed=17.1x    frame=32594 fps=410 q=-0.0 size=N/A time=00:22:39.44 bitrate=N/A speed=17.1x    frame=32754 fps=410 q=-0.0 size=N/A time=00:22:46.11 bitrate=N/A speed=17.1x    frame=32914 fps=409 q=-0.0 size=N/A time=00:22:52.78 bitrate=N/A speed=17.1x    frame=33035 fps=408 q=-0.0 size=N/A time=00:22:57.83 bitrate=N/A speed=  17x    frame=33161 fps=407 q=-0.0 size=N/A time=00:23:03.09 bitrate=N/A speed=  17x    frame=33288 fps=406 q=-0.0 size=N/A time=00:23:08.38 bitrate=N/A speed=16.9x    frame=33404 fps=405 q=-0.0 size=N/A time=00:23:13.22 bitrate=N/A speed=16.9x    frame=33566 fps=404 q=-0.0 size=N/A time=00:23:19.98 bitrate=N/A speed=16.9x    frame=33728 fps=404 q=-0.0 size=N/A time=00:23:26.73 bitrate=N/A speed=16.8x    frame=33840 fps=403 q=-0.0 size=N/A time=00:23:31.41 bitrate=N/A speed=16.8x    frame=33940 fps=401 q=-0.0 size=N/A time=00:23:35.58 bitrate=N/A speed=16.7x    frame=34088 fps=401 q=-0.0 size=N/A time=00:23:41.75 bitrate=N/A speed=16.7x    frame=34239 fps=400 q=-0.0 size=N/A time=00:23:48.05 bitrate=N/A speed=16.7x    frame=34407 fps=399 q=-0.0 size=N/A time=00:23:55.05 bitrate=N/A speed=16.7x    [Parsed_ssim_10 @ 000001e436b2b900] SSIM Y:0.921910 (11.074059) U:0.975557 (16.118497) V:0.972873 (15.666049) All:0.939345 (12.171353)
[out#0/null @ 000001e436167c00] video:14857KiB audio:270432KiB subtitle:0KiB other streams:0KiB global headers:0KiB muxing overhead: unknown
frame=34577 fps=399 q=-0.0 Lsize=N/A time=00:24:02.14 bitrate=N/A speed=16.7x    
